<?xml version="1.0" encoding="UTF-8" standalone="no"?>
<!DOCTYPE svg PUBLIC "-//W3C//DTD SVG 1.1//EN"
 "http://www.w3.org/Graphics/SVG/1.1/DTD/svg11.dtd">
<!-- Generated by graphviz version 2.38.0 (20140413.2041)
 -->
<!-- Title: %3 Pages: 1 -->
<svg width="783pt" height="1787pt"
 viewBox="0.00 0.00 782.54 1787.00" xmlns="http://www.w3.org/2000/svg" xmlns:xlink="http://www.w3.org/1999/xlink">
<g id="graph0" class="graph" transform="scale(1 1) rotate(0) translate(4 1783)">
<title>%3</title>
<polygon fill="white" stroke="none" points="-4,4 -4,-1783 778.538,-1783 778.538,4 -4,4"/>
<!-- start -->
<g id="node1" class="node"><title>start</title>
<path fill="none" stroke="black" d="M619.5,-1779C619.5,-1779 532.5,-1779 532.5,-1779 526.5,-1779 520.5,-1773 520.5,-1767 520.5,-1767 520.5,-1755 520.5,-1755 520.5,-1749 526.5,-1743 532.5,-1743 532.5,-1743 619.5,-1743 619.5,-1743 625.5,-1743 631.5,-1749 631.5,-1755 631.5,-1755 631.5,-1767 631.5,-1767 631.5,-1773 625.5,-1779 619.5,-1779"/>
<text text-anchor="middle" x="576" y="-1757.3" font-family="Times,serif" font-size="14.00">security_update()</text>
</g>
<!-- fetch_FILE_LIST -->
<g id="node3" class="node"><title>fetch_FILE_LIST</title>
<path fill="none" stroke="black" d="M662,-1706C662,-1706 490,-1706 490,-1706 484,-1706 478,-1700 478,-1694 478,-1694 478,-1682 478,-1682 478,-1676 484,-1670 490,-1670 490,-1670 662,-1670 662,-1670 668,-1670 674,-1676 674,-1682 674,-1682 674,-1694 674,-1694 674,-1700 668,-1706 662,-1706"/>
<text text-anchor="middle" x="576" y="-1684.3" font-family="Times,serif" font-size="14.00">Fetch FILE_LIST and signatures</text>
</g>
<!-- start&#45;&gt;fetch_FILE_LIST -->
<g id="edge1" class="edge"><title>start&#45;&gt;fetch_FILE_LIST</title>
<path fill="none" stroke="black" d="M576,-1742.81C576,-1734.79 576,-1725.05 576,-1716.07"/>
<polygon fill="black" stroke="black" points="579.5,-1716.03 576,-1706.03 572.5,-1716.03 579.5,-1716.03"/>
</g>
<!-- end -->
<g id="node2" class="node"><title>end</title>
<path fill="none" stroke="black" d="M601,-1052C601,-1052 571,-1052 571,-1052 565,-1052 559,-1046 559,-1040 559,-1040 559,-1028 559,-1028 559,-1022 565,-1016 571,-1016 571,-1016 601,-1016 601,-1016 607,-1016 613,-1022 613,-1028 613,-1028 613,-1040 613,-1040 613,-1046 607,-1052 601,-1052"/>
<text text-anchor="middle" x="586" y="-1030.3" font-family="Times,serif" font-size="14.00">End</text>
</g>
<!-- verify_checksums -->
<g id="node4" class="node"><title>verify_checksums</title>
<path fill="none" stroke="black" d="M676,-1633C676,-1633 476,-1633 476,-1633 470,-1633 464,-1627 464,-1621 464,-1621 464,-1609 464,-1609 464,-1603 470,-1597 476,-1597 476,-1597 676,-1597 676,-1597 682,-1597 688,-1603 688,-1609 688,-1609 688,-1621 688,-1621 688,-1627 682,-1633 676,-1633"/>
<text text-anchor="middle" x="576" y="-1611.3" font-family="Times,serif" font-size="14.00">Verify CHECKSUMS.md5 with PGP</text>
</g>
<!-- fetch_FILE_LIST&#45;&gt;verify_checksums -->
<g id="edge2" class="edge"><title>fetch_FILE_LIST&#45;&gt;verify_checksums</title>
<path fill="none" stroke="black" d="M576,-1669.81C576,-1661.79 576,-1652.05 576,-1643.07"/>
<polygon fill="black" stroke="black" points="579.5,-1643.03 576,-1633.03 572.5,-1643.03 579.5,-1643.03"/>
</g>
<!-- pgp_verified -->
<g id="node9" class="node"><title>pgp_verified</title>
<polygon fill="none" stroke="black" points="576,-1560 377.424,-1542 576,-1524 774.576,-1542 576,-1560"/>
<text text-anchor="middle" x="576" y="-1538.3" font-family="Times,serif" font-size="14.00">PGP signature successfully verified?</text>
</g>
<!-- verify_checksums&#45;&gt;pgp_verified -->
<g id="edge3" class="edge"><title>verify_checksums&#45;&gt;pgp_verified</title>
<path fill="none" stroke="black" d="M576,-1596.81C576,-1588.79 576,-1579.05 576,-1570.07"/>
<polygon fill="black" stroke="black" points="579.5,-1570.03 576,-1560.03 572.5,-1570.03 579.5,-1570.03"/>
</g>
<!-- md5_verified -->
<g id="node5" class="node"><title>md5_verified</title>
<polygon fill="none" stroke="black" points="435,-1473 281.501,-1455 435,-1437 588.499,-1455 435,-1473"/>
<text text-anchor="middle" x="435" y="-1451.3" font-family="Times,serif" font-size="14.00">MD5 successfully verified?</text>
</g>
<!-- fail -->
<g id="node10" class="node"><title>fail</title>
<path fill="none" stroke="black" d="M696,-1386C696,-1386 552,-1386 552,-1386 546,-1386 540,-1380 540,-1374 540,-1374 540,-1362 540,-1362 540,-1356 546,-1350 552,-1350 552,-1350 696,-1350 696,-1350 702,-1350 708,-1356 708,-1362 708,-1362 708,-1374 708,-1374 708,-1380 702,-1386 696,-1386"/>
<text text-anchor="middle" x="624" y="-1364.3" font-family="Times,serif" font-size="14.00">Can&#39;t upgrade any packages</text>
</g>
<!-- md5_verified&#45;&gt;fail -->
<g id="edge6" class="edge"><title>md5_verified&#45;&gt;fail</title>
<path fill="none" stroke="black" d="M451.179,-1438.72C463.657,-1427.67 481.806,-1413.14 500,-1404 511.469,-1398.24 524.026,-1393.3 536.607,-1389.11"/>
<polygon fill="black" stroke="black" points="537.749,-1392.42 546.214,-1386.05 535.624,-1385.75 537.749,-1392.42"/>
<text text-anchor="middle" x="555" y="-1407.8" font-family="Times,serif" font-size="14.00">No (RET_FAILED)</text>
</g>
<!-- parse_updates -->
<g id="node11" class="node"><title>parse_updates</title>
<path fill="none" stroke="black" d="M510.5,-1386C510.5,-1386 293.5,-1386 293.5,-1386 287.5,-1386 281.5,-1380 281.5,-1374 281.5,-1374 281.5,-1362 281.5,-1362 281.5,-1356 287.5,-1350 293.5,-1350 293.5,-1350 510.5,-1350 510.5,-1350 516.5,-1350 522.5,-1356 522.5,-1362 522.5,-1362 522.5,-1374 522.5,-1374 522.5,-1380 516.5,-1386 510.5,-1386"/>
<text text-anchor="middle" x="402" y="-1364.3" font-family="Times,serif" font-size="14.00">Parse available patches from FILE_LIST</text>
</g>
<!-- md5_verified&#45;&gt;parse_updates -->
<g id="edge8" class="edge"><title>md5_verified&#45;&gt;parse_updates</title>
<path fill="none" stroke="black" d="M428.637,-1437.61C424.025,-1425.73 417.689,-1409.41 412.353,-1395.67"/>
<polygon fill="black" stroke="black" points="415.565,-1394.27 408.683,-1386.21 409.04,-1396.8 415.565,-1394.27"/>
<text text-anchor="middle" x="432" y="-1407.8" font-family="Times,serif" font-size="14.00">Yes</text>
</g>
<!-- package_md5_verified -->
<g id="node6" class="node"><title>package_md5_verified</title>
<polygon fill="none" stroke="black" points="312,-457 175.929,-439 312,-421 448.071,-439 312,-457"/>
<text text-anchor="middle" x="312" y="-435.3" font-family="Times,serif" font-size="14.00">Package&#39;s MD5 verified</text>
</g>
<!-- package_pgp_verified -->
<g id="node7" class="node"><title>package_pgp_verified</title>
<polygon fill="none" stroke="black" points="312,-370 130.852,-352 312,-334 493.148,-352 312,-370"/>
<text text-anchor="middle" x="312" y="-348.3" font-family="Times,serif" font-size="14.00">Package&#39;s PGP signature verified</text>
</g>
<!-- package_md5_verified&#45;&gt;package_pgp_verified -->
<g id="edge27" class="edge"><title>package_md5_verified&#45;&gt;package_pgp_verified</title>
<path fill="none" stroke="black" d="M312,-420.799C312,-409.163 312,-393.548 312,-380.237"/>
<polygon fill="black" stroke="black" points="315.5,-380.175 312,-370.175 308.5,-380.175 315.5,-380.175"/>
<text text-anchor="middle" x="323" y="-391.8" font-family="Times,serif" font-size="14.00">Yes</text>
</g>
<!-- package_ok -->
<g id="node8" class="node"><title>package_ok</title>
<path fill="none" stroke="black" d="M342.5,-283C342.5,-283 281.5,-283 281.5,-283 275.5,-283 269.5,-277 269.5,-271 269.5,-271 269.5,-259 269.5,-259 269.5,-253 275.5,-247 281.5,-247 281.5,-247 342.5,-247 342.5,-247 348.5,-247 354.5,-253 354.5,-259 354.5,-259 354.5,-271 354.5,-271 354.5,-277 348.5,-283 342.5,-283"/>
<text text-anchor="middle" x="312" y="-261.3" font-family="Times,serif" font-size="14.00">Package OK</text>
</g>
<!-- package_pgp_verified&#45;&gt;package_ok -->
<g id="edge28" class="edge"><title>package_pgp_verified&#45;&gt;package_ok</title>
<path fill="none" stroke="black" d="M312,-333.799C312,-322.163 312,-306.548 312,-293.237"/>
<polygon fill="black" stroke="black" points="315.5,-293.175 312,-283.175 308.5,-293.175 315.5,-293.175"/>
<text text-anchor="middle" x="323" y="-304.8" font-family="Times,serif" font-size="14.00">Yes</text>
</g>
<!-- dry_run -->
<g id="node23" class="node"><title>dry_run</title>
<polygon fill="none" stroke="black" points="312,-210 197.211,-192 312,-174 426.789,-192 312,-210"/>
<text text-anchor="middle" x="312" y="-188.3" font-family="Times,serif" font-size="14.00">Dry&#45;run succeeded?</text>
</g>
<!-- package_ok&#45;&gt;dry_run -->
<g id="edge29" class="edge"><title>package_ok&#45;&gt;dry_run</title>
<path fill="none" stroke="black" d="M312,-246.813C312,-238.789 312,-229.047 312,-220.069"/>
<polygon fill="black" stroke="black" points="315.5,-220.029 312,-210.029 308.5,-220.029 315.5,-220.029"/>
</g>
<!-- pgp_verified&#45;&gt;md5_verified -->
<g id="edge5" class="edge"><title>pgp_verified&#45;&gt;md5_verified</title>
<path fill="none" stroke="black" d="M551.44,-1526.19C528.148,-1512.15 493.008,-1490.97 467.425,-1475.55"/>
<polygon fill="black" stroke="black" points="469.18,-1472.52 458.809,-1470.35 465.566,-1478.51 469.18,-1472.52"/>
<text text-anchor="middle" x="525" y="-1494.8" font-family="Times,serif" font-size="14.00">Yes</text>
</g>
<!-- pgp_verified&#45;&gt;fail -->
<g id="edge4" class="edge"><title>pgp_verified&#45;&gt;fail</title>
<path fill="none" stroke="black" d="M581.391,-1524.3C585.765,-1510.57 592.003,-1490.59 597,-1473 604.369,-1447.06 612.026,-1417.25 617.296,-1396.21"/>
<polygon fill="black" stroke="black" points="620.728,-1396.91 619.749,-1386.36 613.936,-1395.22 620.728,-1396.91"/>
<text text-anchor="middle" x="615.5" y="-1451.3" font-family="Times,serif" font-size="14.00">No</text>
</g>
<!-- fail&#45;&gt;end -->
<g id="edge7" class="edge"><title>fail&#45;&gt;end</title>
<path fill="none" stroke="black" d="M624,-1349.78C624,-1335.41 624,-1314.37 624,-1296 624,-1296 624,-1296 624,-1120 624,-1098.92 614.139,-1077.26 604.464,-1061.08"/>
<polygon fill="black" stroke="black" points="607.17,-1058.81 598.865,-1052.23 601.256,-1062.56 607.17,-1058.81"/>
</g>
<!-- any_packages_found -->
<g id="node12" class="node"><title>any_packages_found</title>
<polygon fill="none" stroke="black" points="402,-1313 302.961,-1295 402,-1277 501.039,-1295 402,-1313"/>
<text text-anchor="middle" x="402" y="-1291.3" font-family="Times,serif" font-size="14.00">Packages found?</text>
</g>
<!-- parse_updates&#45;&gt;any_packages_found -->
<g id="edge9" class="edge"><title>parse_updates&#45;&gt;any_packages_found</title>
<path fill="none" stroke="black" d="M402,-1349.81C402,-1341.79 402,-1332.05 402,-1323.07"/>
<polygon fill="black" stroke="black" points="405.5,-1323.03 402,-1313.03 398.5,-1323.03 405.5,-1323.03"/>
</g>
<!-- any_packages_found&#45;&gt;end -->
<g id="edge11" class="edge"><title>any_packages_found&#45;&gt;end</title>
<path fill="none" stroke="black" d="M417.414,-1279.58C450.608,-1247.69 529.297,-1167.44 572,-1085 575.649,-1077.96 578.443,-1069.85 580.54,-1062.24"/>
<polygon fill="black" stroke="black" points="583.99,-1062.86 582.98,-1052.32 577.193,-1061.19 583.99,-1062.86"/>
<text text-anchor="middle" x="533.5" y="-1160.8" font-family="Times,serif" font-size="14.00">No</text>
</g>
<!-- process_packages -->
<g id="node13" class="node"><title>process_packages</title>
<path fill="none" stroke="black" d="M404.5,-1226C404.5,-1226 317.5,-1226 317.5,-1226 311.5,-1226 305.5,-1220 305.5,-1214 305.5,-1214 305.5,-1202 305.5,-1202 305.5,-1196 311.5,-1190 317.5,-1190 317.5,-1190 404.5,-1190 404.5,-1190 410.5,-1190 416.5,-1196 416.5,-1202 416.5,-1202 416.5,-1214 416.5,-1214 416.5,-1220 410.5,-1226 404.5,-1226"/>
<text text-anchor="middle" x="361" y="-1204.3" font-family="Times,serif" font-size="14.00">Process packages</text>
</g>
<!-- any_packages_found&#45;&gt;process_packages -->
<g id="edge10" class="edge"><title>any_packages_found&#45;&gt;process_packages</title>
<path fill="none" stroke="black" d="M394.288,-1278.01C388.483,-1265.98 380.4,-1249.22 373.653,-1235.23"/>
<polygon fill="black" stroke="black" points="376.737,-1233.57 369.24,-1226.08 370.432,-1236.61 376.737,-1233.57"/>
<text text-anchor="middle" x="395" y="-1247.8" font-family="Times,serif" font-size="14.00">Yes</text>
</g>
<!-- next_package -->
<g id="node14" class="node"><title>next_package</title>
<polygon fill="none" stroke="black" points="332,-1139 195.091,-1121 332,-1103 468.909,-1121 332,-1139"/>
<text text-anchor="middle" x="332" y="-1117.3" font-family="Times,serif" font-size="14.00">Packages left in the list?</text>
</g>
<!-- process_packages&#45;&gt;next_package -->
<g id="edge12" class="edge"><title>process_packages&#45;&gt;next_package</title>
<path fill="none" stroke="black" d="M355.131,-1189.8C351.043,-1177.82 345.515,-1161.61 340.888,-1148.05"/>
<polygon fill="black" stroke="black" points="344.106,-1146.64 337.565,-1138.31 337.481,-1148.9 344.106,-1146.64"/>
<text text-anchor="middle" x="360" y="-1160.8" font-family="Times,serif" font-size="14.00">Yes</text>
</g>
<!-- next_package&#45;&gt;end -->
<g id="edge14" class="edge"><title>next_package&#45;&gt;end</title>
<path fill="none" stroke="black" d="M423.798,-1115.02C459.043,-1110.32 498.758,-1101.47 532,-1085 544.466,-1078.82 556.097,-1068.85 565.348,-1059.44"/>
<polygon fill="black" stroke="black" points="567.95,-1061.78 572.227,-1052.09 562.839,-1057 567.95,-1061.78"/>
<text text-anchor="middle" x="562.5" y="-1073.8" font-family="Times,serif" font-size="14.00">No</text>
</g>
<!-- is_package_installed -->
<g id="node15" class="node"><title>is_package_installed</title>
<polygon fill="none" stroke="black" points="279,-1052 103.382,-1034 279,-1016 454.618,-1034 279,-1052"/>
<text text-anchor="middle" x="279" y="-1030.3" font-family="Times,serif" font-size="14.00">Is the package installed locally?</text>
</g>
<!-- next_package&#45;&gt;is_package_installed -->
<g id="edge13" class="edge"><title>next_package&#45;&gt;is_package_installed</title>
<path fill="none" stroke="black" d="M304.556,-1106.48C296.241,-1100.99 287.996,-1093.82 283,-1085 279.106,-1078.12 277.471,-1069.84 276.981,-1062.01"/>
<polygon fill="black" stroke="black" points="280.48,-1061.77 276.92,-1051.79 273.48,-1061.81 280.48,-1061.77"/>
<text text-anchor="middle" x="294" y="-1073.8" font-family="Times,serif" font-size="14.00">Yes</text>
</g>
<!-- is_package_installed&#45;&gt;next_package -->
<g id="edge15" class="edge"><title>is_package_installed&#45;&gt;next_package</title>
<path fill="none" stroke="black" d="M291.668,-1051.04C296.078,-1056.88 300.934,-1063.62 305,-1070 310.027,-1077.89 315.037,-1086.81 319.351,-1094.89"/>
<polygon fill="black" stroke="black" points="316.324,-1096.66 324.056,-1103.9 322.529,-1093.42 316.324,-1096.66"/>
<text text-anchor="middle" x="322.5" y="-1073.8" font-family="Times,serif" font-size="14.00">No</text>
</g>
<!-- is_package_blacklisted -->
<g id="node16" class="node"><title>is_package_blacklisted</title>
<polygon fill="none" stroke="black" points="243,-965 31.6876,-947 243,-929 454.312,-947 243,-965"/>
<text text-anchor="middle" x="243" y="-943.3" font-family="Times,serif" font-size="14.00">Is the package blacklisted for upgrade?</text>
</g>
<!-- is_package_installed&#45;&gt;is_package_blacklisted -->
<g id="edge16" class="edge"><title>is_package_installed&#45;&gt;is_package_blacklisted</title>
<path fill="none" stroke="black" d="M272.059,-1016.61C266.962,-1004.58 259.934,-987.983 254.066,-974.128"/>
<polygon fill="black" stroke="black" points="257.166,-972.472 250.043,-964.629 250.72,-975.202 257.166,-972.472"/>
<text text-anchor="middle" x="275" y="-986.8" font-family="Times,serif" font-size="14.00">Yes</text>
</g>
<!-- is_package_blacklisted&#45;&gt;next_package -->
<g id="edge18" class="edge"><title>is_package_blacklisted&#45;&gt;next_package</title>
<path fill="none" stroke="black" d="M183.906,-959.97C121.37,-975.355 36.272,-1005.73 72,-1052 94.3533,-1080.95 186.853,-1099.95 255.19,-1110.32"/>
<polygon fill="black" stroke="black" points="254.681,-1113.78 265.087,-1111.79 255.709,-1106.86 254.681,-1113.78"/>
<text text-anchor="middle" x="83" y="-1030.3" font-family="Times,serif" font-size="14.00">Yes</text>
</g>
<!-- is_package_newer -->
<g id="node17" class="node"><title>is_package_newer</title>
<polygon fill="none" stroke="black" points="243,-878 29.5108,-860 243,-842 456.489,-860 243,-878"/>
<text text-anchor="middle" x="243" y="-856.3" font-family="Times,serif" font-size="14.00">Is the available patch newer than local?</text>
</g>
<!-- is_package_blacklisted&#45;&gt;is_package_newer -->
<g id="edge17" class="edge"><title>is_package_blacklisted&#45;&gt;is_package_newer</title>
<path fill="none" stroke="black" d="M243,-928.799C243,-917.163 243,-901.548 243,-888.237"/>
<polygon fill="black" stroke="black" points="246.5,-888.175 243,-878.175 239.5,-888.175 246.5,-888.175"/>
<text text-anchor="middle" x="251.5" y="-899.8" font-family="Times,serif" font-size="14.00">No</text>
</g>
<!-- is_package_newer&#45;&gt;next_package -->
<g id="edge19" class="edge"><title>is_package_newer&#45;&gt;next_package</title>
<path fill="none" stroke="black" d="M354.684,-868.641C395.377,-877.465 437.591,-894.962 463,-929 488.163,-962.708 475.039,-1033.89 464,-1052 447.553,-1078.97 416.603,-1095.71 388.804,-1105.82"/>
<polygon fill="black" stroke="black" points="387.462,-1102.58 379.132,-1109.13 389.727,-1109.2 387.462,-1102.58"/>
<text text-anchor="middle" x="486.5" y="-986.8" font-family="Times,serif" font-size="14.00">No</text>
</g>
<!-- upgrade_package_from_mirror -->
<g id="node18" class="node"><title>upgrade_package_from_mirror</title>
<path fill="none" stroke="black" d="M323,-791C323,-791 151,-791 151,-791 145,-791 139,-785 139,-779 139,-779 139,-767 139,-767 139,-761 145,-755 151,-755 151,-755 323,-755 323,-755 329,-755 335,-761 335,-767 335,-767 335,-779 335,-779 335,-785 329,-791 323,-791"/>
<text text-anchor="middle" x="237" y="-769.3" font-family="Times,serif" font-size="14.00">upgrade_package_from_mirror()</text>
</g>
<!-- is_package_newer&#45;&gt;upgrade_package_from_mirror -->
<g id="edge20" class="edge"><title>is_package_newer&#45;&gt;upgrade_package_from_mirror</title>
<path fill="none" stroke="black" d="M241.786,-841.799C240.964,-830.163 239.862,-814.548 238.923,-801.237"/>
<polygon fill="black" stroke="black" points="242.408,-800.904 238.212,-791.175 235.425,-801.397 242.408,-800.904"/>
<text text-anchor="middle" x="252" y="-812.8" font-family="Times,serif" font-size="14.00">Yes</text>
</g>
<!-- next_mirror -->
<g id="node19" class="node"><title>next_mirror</title>
<polygon fill="none" stroke="black" points="236,-718 156.905,-700 236,-682 315.095,-700 236,-718"/>
<text text-anchor="middle" x="236" y="-696.3" font-family="Times,serif" font-size="14.00">Mirrors left?</text>
</g>
<!-- upgrade_package_from_mirror&#45;&gt;next_mirror -->
<g id="edge21" class="edge"><title>upgrade_package_from_mirror&#45;&gt;next_mirror</title>
<path fill="none" stroke="black" d="M236.758,-754.813C236.645,-746.789 236.508,-737.047 236.381,-728.069"/>
<polygon fill="black" stroke="black" points="239.88,-727.979 236.24,-718.029 232.881,-728.077 239.88,-727.979"/>
</g>
<!-- package_upgrade_failed -->
<g id="node20" class="node"><title>package_upgrade_failed</title>
<path fill="none" stroke="black" d="M177.5,-36C177.5,-36 14.5,-36 14.5,-36 8.5,-36 2.5,-30 2.5,-24 2.5,-24 2.5,-12 2.5,-12 2.5,-6 8.5,-0 14.5,-0 14.5,-0 177.5,-0 177.5,-0 183.5,-0 189.5,-6 189.5,-12 189.5,-12 189.5,-24 189.5,-24 189.5,-30 183.5,-36 177.5,-36"/>
<text text-anchor="middle" x="96" y="-14.3" font-family="Times,serif" font-size="14.00">Package could not be upgraded</text>
</g>
<!-- next_mirror&#45;&gt;package_upgrade_failed -->
<g id="edge23" class="edge"><title>next_mirror&#45;&gt;package_upgrade_failed</title>
<path fill="none" stroke="black" d="M193.235,-691.667C152.063,-681.867 96,-660.064 96,-614 96,-614 96,-614 96,-104 96,-84.7526 96,-63.0535 96,-46.3973"/>
<polygon fill="black" stroke="black" points="99.5001,-46.2564 96,-36.2564 92.5001,-46.2565 99.5001,-46.2564"/>
<text text-anchor="middle" x="104.5" y="-348.3" font-family="Times,serif" font-size="14.00">No</text>
</g>
<!-- fetch_package -->
<g id="node21" class="node"><title>fetch_package</title>
<path fill="none" stroke="black" d="M264.5,-631C264.5,-631 193.5,-631 193.5,-631 187.5,-631 181.5,-625 181.5,-619 181.5,-619 181.5,-607 181.5,-607 181.5,-601 187.5,-595 193.5,-595 193.5,-595 264.5,-595 264.5,-595 270.5,-595 276.5,-601 276.5,-607 276.5,-607 276.5,-619 276.5,-619 276.5,-625 270.5,-631 264.5,-631"/>
<text text-anchor="middle" x="229" y="-609.3" font-family="Times,serif" font-size="14.00">Fetch package</text>
</g>
<!-- next_mirror&#45;&gt;fetch_package -->
<g id="edge22" class="edge"><title>next_mirror&#45;&gt;fetch_package</title>
<path fill="none" stroke="black" d="M234.617,-682.207C233.655,-670.525 232.351,-654.692 231.242,-641.222"/>
<polygon fill="black" stroke="black" points="234.713,-640.728 230.404,-631.049 227.737,-641.303 234.713,-640.728"/>
<text text-anchor="middle" x="244" y="-652.8" font-family="Times,serif" font-size="14.00">Yes</text>
</g>
<!-- package_upgrade_failed&#45;&gt;next_package -->
<g id="edge34" class="edge"><title>package_upgrade_failed&#45;&gt;next_package</title>
<path fill="none" stroke="black" d="M55.2874,-36.0457C29.1226,-50.0144 0,-72.6122 0,-104 0,-1035 0,-1035 0,-1035 0,-1083.56 134.966,-1104.75 232.791,-1113.73"/>
<polygon fill="black" stroke="black" points="232.76,-1117.24 243.03,-1114.64 233.379,-1110.27 232.76,-1117.24"/>
<text text-anchor="middle" x="40.5" y="-565.8" font-family="Times,serif" font-size="14.00">RET_FAILED</text>
</g>
<!-- download_success -->
<g id="node22" class="node"><title>download_success</title>
<polygon fill="none" stroke="black" points="312,-544 190.842,-526 312,-508 433.158,-526 312,-544"/>
<text text-anchor="middle" x="312" y="-522.3" font-family="Times,serif" font-size="14.00">Download succeeded</text>
</g>
<!-- fetch_package&#45;&gt;download_success -->
<g id="edge24" class="edge"><title>fetch_package&#45;&gt;download_success</title>
<path fill="none" stroke="black" d="M245.796,-594.799C258.586,-581.701 276.297,-563.563 290.183,-549.343"/>
<polygon fill="black" stroke="black" points="292.965,-551.503 297.448,-541.903 287.957,-546.613 292.965,-551.503"/>
</g>
<!-- download_success&#45;&gt;package_md5_verified -->
<g id="edge26" class="edge"><title>download_success&#45;&gt;package_md5_verified</title>
<path fill="none" stroke="black" d="M312,-507.799C312,-496.163 312,-480.548 312,-467.237"/>
<polygon fill="black" stroke="black" points="315.5,-467.175 312,-457.175 308.5,-467.175 315.5,-467.175"/>
<text text-anchor="middle" x="323" y="-478.8" font-family="Times,serif" font-size="14.00">Yes</text>
</g>
<!-- download_success&#45;&gt;next_mirror -->
<g id="edge25" class="edge"><title>download_success&#45;&gt;next_mirror</title>
<path fill="none" stroke="black" d="M309.594,-543.864C306.142,-564.995 298.643,-601.96 285,-631 277.308,-647.372 265.532,-663.878 255.452,-676.528"/>
<polygon fill="black" stroke="black" points="252.451,-674.668 248.816,-684.62 257.864,-679.107 252.451,-674.668"/>
<text text-anchor="middle" x="307.5" y="-609.3" font-family="Times,serif" font-size="14.00">No</text>
</g>
<!-- upgradepkg -->
<g id="node24" class="node"><title>upgradepkg</title>
<polygon fill="none" stroke="black" points="312,-123 175.091,-105 312,-87 448.909,-105 312,-123"/>
<text text-anchor="middle" x="312" y="-101.3" font-family="Times,serif" font-size="14.00">Upgradepkg succeeded?</text>
</g>
<!-- dry_run&#45;&gt;upgradepkg -->
<g id="edge30" class="edge"><title>dry_run&#45;&gt;upgradepkg</title>
<path fill="none" stroke="black" d="M312,-173.799C312,-162.163 312,-146.548 312,-133.237"/>
<polygon fill="black" stroke="black" points="315.5,-133.175 312,-123.175 308.5,-133.175 315.5,-133.175"/>
<text text-anchor="middle" x="323" y="-144.8" font-family="Times,serif" font-size="14.00">Yes</text>
</g>
<!-- upgradepkg&#45;&gt;package_upgrade_failed -->
<g id="edge32" class="edge"><title>upgradepkg&#45;&gt;package_upgrade_failed</title>
<path fill="none" stroke="black" d="M279.194,-91.0903C244.668,-77.5038 189.789,-55.9077 149.087,-39.8907"/>
<polygon fill="black" stroke="black" points="150.176,-36.5581 139.589,-36.1531 147.613,-43.0719 150.176,-36.5581"/>
<text text-anchor="middle" x="225.5" y="-57.8" font-family="Times,serif" font-size="14.00">No</text>
</g>
<!-- package_upgraded -->
<g id="node25" class="node"><title>package_upgraded</title>
<path fill="none" stroke="black" d="M514,-36C514,-36 422,-36 422,-36 416,-36 410,-30 410,-24 410,-24 410,-12 410,-12 410,-6 416,-0 422,-0 422,-0 514,-0 514,-0 520,-0 526,-6 526,-12 526,-12 526,-24 526,-24 526,-30 520,-36 514,-36"/>
<text text-anchor="middle" x="468" y="-14.3" font-family="Times,serif" font-size="14.00">Package upgraded</text>
</g>
<!-- upgradepkg&#45;&gt;package_upgraded -->
<g id="edge31" class="edge"><title>upgradepkg&#45;&gt;package_upgraded</title>
<path fill="none" stroke="black" d="M337.411,-90.1541C361.874,-76.8253 399.253,-56.4582 427.762,-40.9246"/>
<polygon fill="black" stroke="black" points="429.572,-43.9241 436.679,-36.0661 426.223,-37.7773 429.572,-43.9241"/>
<text text-anchor="middle" x="411" y="-57.8" font-family="Times,serif" font-size="14.00">Yes</text>
</g>
<!-- package_upgraded&#45;&gt;next_package -->
<g id="edge33" class="edge"><title>package_upgraded&#45;&gt;next_package</title>
<path fill="none" stroke="black" d="M486.835,-36.2854C502.069,-52.2278 521,-77.3924 521,-104 521,-1035 521,-1035 521,-1035 521,-1081.18 473.477,-1102.42 426.091,-1112.12"/>
<polygon fill="black" stroke="black" points="425.179,-1108.73 415.999,-1114.02 426.474,-1115.61 425.179,-1108.73"/>
<text text-anchor="middle" x="547" y="-565.8" font-family="Times,serif" font-size="14.00">RET_OK</text>
</g>
</g>
</svg>
